<?xml version="1.0" encoding="UTF-8"?>
<!DOCTYPE svg PUBLIC "-//W3C//DTD SVG 1.1//EN" "http://www.w3.org/Graphics/SVG/1.1/DTD/svg11.dtd">
<svg xmlns="http://www.w3.org/2000/svg" version="1.1" width="512px" height="512px" style="shape-rendering:geometricPrecision; text-rendering:geometricPrecision; image-rendering:optimizeQuality; fill-rule:evenodd; clip-rule:evenodd" xmlns:xlink="http://www.w3.org/1999/xlink">
<g><path style="opacity:0.964" fill="white" d="M 226.5,-0.5 C 245.833,-0.5 265.167,-0.5 284.5,-0.5C 289.754,1.58567 293.588,5.25234 296,10.5C 298.483,19.4435 297.817,28.1101 294,36.5C 289.692,41.5512 284.192,44.2178 277.5,44.5C 276.508,48.7828 276.174,53.1161 276.5,57.5C 327.417,62.1252 371.751,81.4585 409.5,115.5C 413.985,111.515 418.318,107.349 422.5,103C 416.595,92.4581 419.262,84.7914 430.5,80C 434.962,79.1539 438.962,80.1539 442.5,83C 449,89.5 455.5,96 462,102.5C 466.65,111.296 464.816,118.462 456.5,124C 452.858,125.558 449.191,125.891 445.5,125C 440.833,129.667 436.167,134.333 431.5,139C 480.738,201.856 494.905,272.023 474,349.5C 448.764,427.069 397.264,478.235 319.5,503C 305.238,506.928 290.904,509.762 276.5,511.5C 262.5,511.5 248.5,511.5 234.5,511.5C 142.405,499.04 78.2386,450.04 42,364.5C 13.8013,280.683 27.1346,204.349 82,135.5C 122.22,89.9699 172.72,63.8032 233.5,57C 234.798,52.8821 234.798,48.7154 233.5,44.5C 223.54,43.9426 217.04,38.9426 214,29.5C 213.13,23.0828 213.464,16.7494 215,10.5C 217.412,5.25234 221.246,1.58567 226.5,-0.5 Z M 238.5,87.5 C 306.378,84.0513 362.545,107.718 407,158.5C 450.296,213.917 462.296,275.584 443,343.5C 417.396,415.064 367.562,459.564 293.5,477C 212.945,489.383 147.445,463.883 97,400.5C 59.3432,346.535 49.6765,287.869 68,224.5C 90.7547,159.412 134.921,116.245 200.5,95C 213.158,91.7279 225.825,89.2279 238.5,87.5 Z"/></g>
<g><path style="opacity:0.986" fill="red" d="M 248.5,99.5 C 327.305,102.622 383.472,139.622 417,210.5C 426.382,233.576 431.215,257.576 431.5,282.5C 427.167,282.5 422.833,282.5 418.5,282.5C 417.644,269.824 411.311,261.324 399.5,257C 364.2,255.707 328.867,255.04 293.5,255C 282.835,238.998 267.835,230.832 248.5,230.5C 248.5,186.833 248.5,143.167 248.5,99.5 Z"/></g>
<g><path style="opacity:0.973" fill="white" d="M 244.5,241.5 C 264.252,240.369 277.918,248.869 285.5,267C 322.833,267.333 360.167,267.667 397.5,268C 404.696,272.328 406.196,278.162 402,285.5C 401.097,286.701 399.931,287.535 398.5,288C 360.833,288.333 323.167,288.667 285.5,289C 276.605,309.949 260.938,317.949 238.5,313C 220.516,305.546 212.35,292.046 214,272.5C 217.681,255.653 227.847,245.32 244.5,241.5 Z"/></g>
</svg>
