<?xml version="1.0" encoding="UTF-8"?>
<!DOCTYPE svg PUBLIC "-//W3C//DTD SVG 1.1//EN" "http://www.w3.org/Graphics/SVG/1.1/DTD/svg11.dtd">
<svg xmlns="http://www.w3.org/2000/svg" version="1.1" width="64px" height="64px"
    style="shape-rendering:geometricPrecision; text-rendering:geometricPrecision; image-rendering:optimizeQuality; fill-rule:evenodd; clip-rule:evenodd"
    xmlns:xlink="http://www.w3.org/1999/xlink">
    <g>
        <path style="opacity:0.855" fill="#fefffe"
            d="M 13.5,-0.5 C 16.5,-0.5 19.5,-0.5 22.5,-0.5C 23.8361,1.01027 25.0027,2.67694 26,4.5C 26.4994,9.82294 26.666,15.1563 26.5,20.5C 29.3646,20.0548 31.8646,20.7215 34,22.5C 36.2276,20.8866 38.7276,20.22 41.5,20.5C 41.3343,16.1539 41.501,11.8206 42,7.5C 46.9235,-0.0878412 52.2569,-0.421175 58,6.5C 58.6667,21.8333 58.6667,37.1667 58,52.5C 56.2723,58.0273 52.7723,61.6939 47.5,63.5C 37.5,63.5 27.5,63.5 17.5,63.5C 9.06268,59.5613 3.72935,53.0613 1.5,44C 2.30186,38.5635 4.80186,34.0635 9,30.5C 9.33333,21.8333 9.66667,13.1667 10,4.5C 10.9973,2.67694 12.1639,1.01027 13.5,-0.5 Z M 16.5,5.5 C 17.8221,5.33003 18.9887,5.66337 20,6.5C 20.4996,13.4921 20.6663,20.4921 20.5,27.5C 18.8333,27.5 17.1667,27.5 15.5,27.5C 15.2363,20.1104 15.5696,12.7771 16.5,5.5 Z M 48.5,8.5 C 49.8221,8.33003 50.9887,8.66337 52,9.5C 52.9482,23.9021 52.6149,38.2354 51,52.5C 49.4571,54.3783 47.6238,55.8783 45.5,57C 36.8333,57.6667 28.1667,57.6667 19.5,57C 6.24463,50.4022 5.24463,42.5688 16.5,33.5C 17.5,33.8333 18.1667,34.5 18.5,35.5C 15.5733,38.2557 13.2399,41.4223 11.5,45C 11.8621,46.8853 13.0287,47.7186 15,47.5C 18.2426,45.9349 21.2426,43.9349 24,41.5C 30.4828,41.4583 36.9828,41.6249 43.5,42C 44.6667,40.8333 45.8333,39.6667 47,38.5C 47.2155,28.4539 47.7155,18.4539 48.5,8.5 Z M 28.5,26.5 C 32.2555,29.5656 32.4222,32.899 29,36.5C 25.8563,33.3081 25.6896,29.9748 28.5,26.5 Z M 38.5,26.5 C 39.4959,26.4142 40.3292,26.7476 41,27.5C 41.6667,30.1667 41.6667,32.8333 41,35.5C 40,36.8333 39,36.8333 38,35.5C 37.2642,32.408 37.4309,29.408 38.5,26.5 Z" />
    </g>
</svg>