<?xml version="1.0" encoding="UTF-8"?>
<!DOCTYPE svg PUBLIC "-//W3C//DTD SVG 1.1//EN" "http://www.w3.org/Graphics/SVG/1.1/DTD/svg11.dtd">
<svg xmlns="http://www.w3.org/2000/svg" version="1.1" width="64px" height="64px"
    style="shape-rendering:geometricPrecision; text-rendering:geometricPrecision; image-rendering:optimizeQuality; fill-rule:evenodd; clip-rule:evenodd"
    xmlns:xlink="http://www.w3.org/1999/xlink">
    <g>
        <path style="opacity:0.802" fill="#b22fd4"
            d="M 50.5,-0.5 C 51.1667,-0.5 51.8333,-0.5 52.5,-0.5C 53.5,5.83333 57.1667,9.5 63.5,10.5C 63.5,11.1667 63.5,11.8333 63.5,12.5C 61.1932,13.6534 58.8599,14.8201 56.5,16C 55.1922,18.7951 53.5255,21.2951 51.5,23.5C 49.9138,21.3295 48.5804,18.9962 47.5,16.5C 44.8333,14.8333 42.1667,13.1667 39.5,11.5C 42.1667,9.83333 44.8333,8.16667 47.5,6.5C 48.7878,4.26121 49.7878,1.92788 50.5,-0.5 Z M 51.5,7.5 C 52.4511,9.11799 53.7844,10.4513 55.5,11.5C 53.8333,12.5 52.5,13.8333 51.5,15.5C 50.6364,13.8035 49.3031,12.6368 47.5,12C 49.3844,10.9513 50.7177,9.45125 51.5,7.5 Z" />
    </g>
    <g>
        <path style="opacity:0.789" fill="#af2fd3"
            d="M -0.5,31.5 C -0.5,30.8333 -0.5,30.1667 -0.5,29.5C 4.14011,27.1799 8.80678,24.8466 13.5,22.5C 16.263,17.2985 19.263,12.2985 22.5,7.5C 25.3738,12.7486 28.3738,17.9152 31.5,23C 36.1667,25.3333 40.8333,27.6667 45.5,30C 40.6587,32.9212 35.6587,35.5879 30.5,38C 27.7936,43.2469 24.9603,48.4135 22,53.5C 19.5475,48.0927 16.7142,42.9261 13.5,38C 8.93168,35.5482 4.26501,33.3815 -0.5,31.5 Z M 21.5,15.5 C 23.8502,18.3488 25.8502,21.5155 27.5,25C 30.8333,26.6667 34.1667,28.3333 37.5,30C 34.1667,31.6667 30.8333,33.3333 27.5,35C 25.5392,38.4212 23.7059,41.9212 22,45.5C 20.3333,42.1667 18.6667,38.8333 17,35.5C 13.7515,33.7929 10.5849,31.9596 7.5,30C 10.9939,28.4205 14.3272,26.5872 17.5,24.5C 19.12,21.5963 20.4533,18.5963 21.5,15.5 Z" />
    </g>
    <g>
        <path style="opacity:0.807" fill="#af2fd3"
            d="M 63.5,47.5 C 63.5,48.1667 63.5,48.8333 63.5,49.5C 60.5266,50.9867 57.5266,52.4867 54.5,54C 52.6932,57.1145 51.0265,60.2812 49.5,63.5C 48.8333,63.5 48.1667,63.5 47.5,63.5C 46.4533,60.4037 45.12,57.4037 43.5,54.5C 40.3272,52.4128 36.9939,50.5795 33.5,49C 36.3388,47.0797 39.3388,45.4131 42.5,44C 44.792,40.5838 46.9586,37.0838 49,33.5C 50.5795,36.9939 52.4128,40.3272 54.5,43.5C 57.4037,45.12 60.4037,46.4533 63.5,47.5 Z M 48.5,41.5 C 49.921,44.7576 52.2543,47.2576 55.5,49C 52,49.8333 49.8333,52 49,55.5C 47.4371,52.2716 44.9371,50.1049 41.5,49C 45.4183,47.917 47.7517,45.417 48.5,41.5 Z" />
    </g>
</svg>