<?xml version="1.0" encoding="UTF-8"?>
<!DOCTYPE svg PUBLIC "-//W3C//DTD SVG 1.1//EN" "http://www.w3.org/Graphics/SVG/1.1/DTD/svg11.dtd">
<svg xmlns="http://www.w3.org/2000/svg" version="1.1" width="64px" height="64px"
    style="shape-rendering:geometricPrecision; text-rendering:geometricPrecision; image-rendering:optimizeQuality; fill-rule:evenodd; clip-rule:evenodd"
    xmlns:xlink="http://www.w3.org/1999/xlink">
    <g>
        <path style="opacity:0.879" fill="#fefffe"
            d="M -0.5,-0.5 C 1.16667,-0.5 2.83333,-0.5 4.5,-0.5C 5.32067,18.4268 5.82067,37.4268 6,56.5C 25.1665,57.1726 44.3332,57.8393 63.5,58.5C 63.5,60.1667 63.5,61.8333 63.5,63.5C 43.5,63.5 23.5,63.5 3.5,63.5C 1.83333,62.5 0.5,61.1667 -0.5,59.5C -0.5,39.5 -0.5,19.5 -0.5,-0.5 Z" />
    </g>
    <g>
        <path style="opacity:0.864" fill="#fefffe"
            d="M 26.5,15.5 C 28.1667,15.5 29.8333,15.5 31.5,15.5C 31.6665,27.8378 31.4999,40.1712 31,52.5C 29.0624,53.8602 27.3957,53.5268 26,51.5C 25.1888,39.4242 25.3554,27.4242 26.5,15.5 Z" />
    </g>
    <g>
        <path style="opacity:0.864" fill="#fefffe"
            d="M 47.5,15.5 C 49.4672,15.2606 51.3005,15.5939 53,16.5C 53.6667,28.1667 53.6667,39.8333 53,51.5C 51.6043,53.5268 49.9376,53.8602 48,52.5C 47.5001,40.1712 47.3335,27.8378 47.5,15.5 Z" />
    </g>
    <g>
        <path style="opacity:0.838" fill="#fefffe"
            d="M 15.5,28.5 C 17.4672,28.2606 19.3005,28.5939 21,29.5C 21.6667,36.8333 21.6667,44.1667 21,51.5C 19.6043,53.5268 17.9376,53.8602 16,52.5C 15.5003,44.5069 15.3336,36.5069 15.5,28.5 Z" />
    </g>
    <g>
        <path style="opacity:0.833" fill="#fefffe"
            d="M 37.5,28.5 C 39.1439,28.2865 40.6439,28.6198 42,29.5C 42.6667,37.1667 42.6667,44.8333 42,52.5C 40.3333,53.8333 38.6667,53.8333 37,52.5C 36.2004,44.4211 36.3671,36.4211 37.5,28.5 Z" />
    </g>
</svg>