<?xml version="1.0" encoding="UTF-8"?>
<!DOCTYPE svg PUBLIC "-//W3C//DTD SVG 1.1//EN" "http://www.w3.org/Graphics/SVG/1.1/DTD/svg11.dtd">
<svg xmlns="http://www.w3.org/2000/svg" version="1.1" width="128px" height="128px" style="shape-rendering:geometricPrecision; text-rendering:geometricPrecision; image-rendering:optimizeQuality; fill-rule:evenodd; clip-rule:evenodd" xmlns:xlink="http://www.w3.org/1999/xlink">
<g><path style="opacity:0.881" fill="#000000" d="M 127.5,87.5 C 127.5,88.5 127.5,89.5 127.5,90.5C 125.37,92.1271 123.37,93.9604 121.5,96C 120.5,96.6667 119.5,96.6667 118.5,96C 100.595,77.593 82.2615,59.7597 63.5,42.5C 44.7385,59.7597 26.4051,77.593 8.5,96C 7.5,96.6667 6.5,96.6667 5.5,96C 3.62976,93.9604 1.62976,92.1271 -0.5,90.5C -0.5,89.5 -0.5,88.5 -0.5,87.5C 17.6319,69.8684 35.6319,52.0351 53.5,34C 60.1667,30.6667 66.8333,30.6667 73.5,34C 91.3681,52.0351 109.368,69.8684 127.5,87.5 Z"/></g>
</svg>
