<?xml version="1.0" encoding="UTF-8"?>
<svg version="1.1" xmlns="http://www.w3.org/2000/svg" width="64" height="64">
<path d="M0 0 C8.34296853 4.97488123 13.53708251 11.86384564 16.109375 21.2578125 C16.89814221 30.10851435 17.06941889 38.555881 12.109375 46.2578125 C11.67367187 46.96421875 11.23796875 47.670625 10.7890625 48.3984375 C6.10935787 55.30291974 0.10880944 59.05772679 -7.890625 61.2578125 C-16.74132685 62.04657971 -25.1886935 62.21785639 -32.890625 57.2578125 C-33.59703125 56.82210937 -34.3034375 56.38640625 -35.03125 55.9375 C-41.93709584 51.25687115 -45.68778524 45.25759899 -47.890625 37.2578125 C-48.88914012 26.15803978 -48.24009702 16.5233259 -41.140625 7.4453125 C-30.84272373 -3.5807232 -13.59449082 -6.52353083 0 0 Z M-37.484375 14.16015625 C-41.69224349 20.43689342 -42.89619641 26.76687043 -41.890625 34.2578125 C-40.1357606 41.06906586 -37.70697996 45.29211594 -31.890625 49.2578125 C-31.43623047 48.44376953 -31.43623047 48.44376953 -30.97265625 47.61328125 C-30.34423828 46.54013672 -30.34423828 46.54013672 -29.703125 45.4453125 C-29.29707031 44.73761719 -28.89101563 44.02992187 -28.47265625 43.30078125 C-25.84708247 39.91022549 -23.21937539 38.4563203 -18.98828125 37.82421875 C-8.4518088 37.8106583 -8.4518088 37.8106583 -3.890625 42.2578125 C-2.33780257 44.53821526 -1.13048916 46.77808418 0.109375 49.2578125 C5.9329642 45.2871835 8.3391735 41.07010477 10.109375 34.2578125 C11.21585085 26.97539489 9.733499 20.63755741 6.109375 14.2578125 C2.0037723 8.69503993 -3.19503099 5.02528297 -9.890625 3.2578125 C-21.32160173 1.62040232 -30.30334145 5.09918231 -37.484375 14.16015625 Z M-23.890625 46.2578125 C-25.52047094 48.5544136 -25.94375081 49.63801135 -25.703125 52.4453125 C-25.435 53.0434375 -25.166875 53.6415625 -24.890625 54.2578125 C-21.69906052 55.32166733 -19.30565024 55.42459232 -15.953125 55.4453125 C-14.39271484 55.46658203 -14.39271484 55.46658203 -12.80078125 55.48828125 C-9.94015887 55.26173532 -8.31392349 54.73514869 -5.890625 53.2578125 C-6.37014296 48.94215083 -7.59297518 47.0558184 -10.890625 44.2578125 C-15.65426781 41.8759911 -19.86163623 43.12415457 -23.890625 46.2578125 Z " fill="#FFFFFF" transform="translate(47.890625,2.7421875)"/>
<path d="M0 0 C3.02508145 1.73602105 5.41790069 3.83580137 7 7 C7.68128376 13.81283762 7.68128376 13.81283762 5.953125 16.82421875 C2.82207185 20.62752744 1.13366332 21.88663367 -3.75 22.375 C-7.10058068 22.35058775 -8.84894532 21.75601354 -11.4375 19.625 C-14.88331435 16.0951414 -15.39555836 14.0716348 -15.359375 9.10546875 C-14.72418186 5.38406547 -12.66020984 3.59687151 -10 1 C-6.77140153 -0.61429923 -3.49006347 -0.59570657 0 0 Z M-7.25 7.9375 C-8.11625 8.9584375 -8.11625 8.9584375 -9 10 C-7.94525335 13.69460876 -7.94525335 13.69460876 -5.125 16.0625 C-2.77383252 16.21665306 -2.77383252 16.21665306 -0.75 14.0625 C-0.1725 13.381875 0.405 12.70125 1 12 C-0.05474665 8.30539124 -0.05474665 8.30539124 -2.875 5.9375 C-5.22616748 5.78334694 -5.22616748 5.78334694 -7.25 7.9375 Z " fill="#FFFFFF" transform="translate(36,13)"/>
</svg>
