<?xml version="1.0" encoding="UTF-8"?>
<!DOCTYPE svg PUBLIC "-//W3C//DTD SVG 1.1//EN" "http://www.w3.org/Graphics/SVG/1.1/DTD/svg11.dtd">
<svg xmlns="http://www.w3.org/2000/svg" version="1.1" width="64px" height="64px" style="shape-rendering:geometricPrecision; text-rendering:geometricPrecision; image-rendering:optimizeQuality; fill-rule:evenodd; clip-rule:evenodd" xmlns:xlink="http://www.w3.org/1999/xlink">
<g><path style="opacity:0.871" fill="#fefffe" d="M 0.5,-0.5 C 2.5,-0.5 4.5,-0.5 6.5,-0.5C 14.479,8.14566 22.8123,16.479 31.5,24.5C 40.1877,16.479 48.521,8.14566 56.5,-0.5C 58.5,-0.5 60.5,-0.5 62.5,-0.5C 62.5,0.166667 62.8333,0.5 63.5,0.5C 63.5,2.5 63.5,4.5 63.5,6.5C 54.8543,14.479 46.521,22.8123 38.5,31.5C 46.521,40.1877 54.8543,48.521 63.5,56.5C 63.5,58.5 63.5,60.5 63.5,62.5C 62.8333,62.5 62.5,62.8333 62.5,63.5C 60.5,63.5 58.5,63.5 56.5,63.5C 48.521,54.8543 40.1877,46.521 31.5,38.5C 22.8123,46.521 14.479,54.8543 6.5,63.5C 4.5,63.5 2.5,63.5 0.5,63.5C 0.5,62.8333 0.166667,62.5 -0.5,62.5C -0.5,60.5 -0.5,58.5 -0.5,56.5C 8.14566,48.521 16.479,40.1877 24.5,31.5C 16.479,22.8123 8.14566,14.479 -0.5,6.5C -0.5,4.5 -0.5,2.5 -0.5,0.5C 0.166667,0.5 0.5,0.166667 0.5,-0.5 Z"/></g>
</svg>
