<?xml version="1.0" encoding="UTF-8"?>
<!DOCTYPE svg PUBLIC "-//W3C//DTD SVG 1.1//EN" "http://www.w3.org/Graphics/SVG/1.1/DTD/svg11.dtd">
<svg xmlns="http://www.w3.org/2000/svg" version="1.1" width="64px" height="64px" style="shape-rendering:geometricPrecision; text-rendering:geometricPrecision; image-rendering:optimizeQuality; fill-rule:evenodd; clip-rule:evenodd" xmlns:xlink="http://www.w3.org/1999/xlink">
<g><path style="opacity:0.968" fill="#fefffe" d="M 3.5,-0.5 C 9.5,-0.5 15.5,-0.5 21.5,-0.5C 21.5,2.16667 21.5,4.83333 21.5,7.5C 16.8333,7.5 12.1667,7.5 7.5,7.5C 7.5,23.5 7.5,39.5 7.5,55.5C 12.1667,55.5 16.8333,55.5 21.5,55.5C 21.5,58.1667 21.5,60.8333 21.5,63.5C 15.5,63.5 9.5,63.5 3.5,63.5C 1.83333,62.5 0.5,61.1667 -0.5,59.5C -0.5,40.8333 -0.5,22.1667 -0.5,3.5C 0.5,1.83333 1.83333,0.5 3.5,-0.5 Z"/></g>
<g><path style="opacity:0.903" fill="#fefffe" d="M 63.5,27.5 C 63.5,30.1667 63.5,32.8333 63.5,35.5C 58.8814,40.7852 53.8814,45.7852 48.5,50.5C 46.1667,48.8333 44.1667,46.8333 42.5,44.5C 44.9836,41.5157 47.6503,38.6824 50.5,36C 37.8377,35.5001 25.1711,35.3334 12.5,35.5C 12.5,32.8333 12.5,30.1667 12.5,27.5C 24.843,27.2978 37.1764,26.7978 49.5,26C 46.9832,23.6506 44.6499,21.1506 42.5,18.5C 44.1667,16.1667 46.1667,14.1667 48.5,12.5C 53.8814,17.2148 58.8814,22.2148 63.5,27.5 Z"/></g>
</svg>
