<?xml version="1.0" encoding="UTF-8"?>
<!DOCTYPE svg PUBLIC "-//W3C//DTD SVG 1.1//EN" "http://www.w3.org/Graphics/SVG/1.1/DTD/svg11.dtd">
<svg xmlns="http://www.w3.org/2000/svg" version="1.1" width="64px" height="64px" style="shape-rendering:geometricPrecision; text-rendering:geometricPrecision; image-rendering:optimizeQuality; fill-rule:evenodd; clip-rule:evenodd" xmlns:xlink="http://www.w3.org/1999/xlink">
<g><path style="opacity:0.85" fill="#fefffe" d="M 29.5,-0.5 C 30.8333,-0.5 32.1667,-0.5 33.5,-0.5C 43.199,8.53359 53.199,17.2003 63.5,25.5C 63.5,36.8333 63.5,48.1667 63.5,59.5C 61.8333,60.5 60.5,61.8333 59.5,63.5C 40.8333,63.5 22.1667,63.5 3.5,63.5C 2.5,61.8333 1.16667,60.5 -0.5,59.5C -0.5,48.1667 -0.5,36.8333 -0.5,25.5C 9.80103,17.2003 19.801,8.53359 29.5,-0.5 Z M 29.5,7.5 C 30.8734,7.34332 32.2068,7.50999 33.5,8C 41.3333,15.1667 49.1667,22.3333 57,29.5C 57.6667,38.5 57.6667,47.5 57,56.5C 53.27,57.4601 49.4367,57.7935 45.5,57.5C 45.666,52.1563 45.4994,46.8229 45,41.5C 41.7476,32.9556 35.581,29.789 26.5,32C 21.9014,33.5981 19.0681,36.7647 18,41.5C 17.5006,46.8229 17.334,52.1563 17.5,57.5C 13.5633,57.7935 9.72998,57.4601 6,56.5C 5.33333,47.5 5.33333,38.5 6,29.5C 14.0306,22.3003 21.8639,14.967 29.5,7.5 Z M 28.5,37.5 C 32.594,36.7046 35.7607,38.038 38,41.5C 39.2712,46.7539 39.7712,52.0873 39.5,57.5C 34.1667,57.5 28.8333,57.5 23.5,57.5C 23.2288,52.0873 23.7288,46.7539 25,41.5C 26.3756,40.2949 27.5423,38.9616 28.5,37.5 Z"/></g>
</svg>
