<?xml version="1.0" encoding="UTF-8"?>
<!DOCTYPE svg PUBLIC "-//W3C//DTD SVG 1.1//EN" "http://www.w3.org/Graphics/SVG/1.1/DTD/svg11.dtd">
<svg xmlns="http://www.w3.org/2000/svg" version="1.1" width="64px" height="64px" style="shape-rendering:geometricPrecision; text-rendering:geometricPrecision; image-rendering:optimizeQuality; fill-rule:evenodd; clip-rule:evenodd" xmlns:xlink="http://www.w3.org/1999/xlink">
<g><path style="opacity:0.825" fill="#fefffe" d="M 23.5,-0.5 C 28.8333,-0.5 34.1667,-0.5 39.5,-0.5C 51.8333,3.16667 59.8333,11.1667 63.5,23.5C 63.5,28.8333 63.5,34.1667 63.5,39.5C 59.8333,51.8333 51.8333,59.8333 39.5,63.5C 34.1667,63.5 28.8333,63.5 23.5,63.5C 11.1667,59.8333 3.16667,51.8333 -0.5,39.5C -0.5,34.1667 -0.5,28.8333 -0.5,23.5C 3.16667,11.1667 11.1667,3.16667 23.5,-0.5 Z M 26.5,5.5 C 42.4443,4.2151 52.611,11.2151 57,26.5C 58.7653,42.4744 51.932,52.641 36.5,57C 20.5256,58.7653 10.359,51.932 6,36.5C 4.35294,20.4409 11.1863,10.1076 26.5,5.5 Z"/></g>
<g><path style="opacity:0.776" fill="#fefffe" d="M 28.5,12.5 C 35.6758,11.9846 37.3425,14.8179 33.5,21C 31.2992,21.8249 29.4659,21.3249 28,19.5C 27.2967,17.0709 27.4634,14.7375 28.5,12.5 Z"/></g>
<g><path style="opacity:0.844" fill="#fefffe" d="M 25.5,25.5 C 28.1873,25.3359 30.854,25.5026 33.5,26C 35.3333,26.5 36.5,27.6667 37,29.5C 37.4996,36.4921 37.6663,43.4921 37.5,50.5C 35.5,50.5 33.5,50.5 31.5,50.5C 31.5,44.1667 31.5,37.8333 31.5,31.5C 29.5,31.5 27.5,31.5 25.5,31.5C 25.5,29.5 25.5,27.5 25.5,25.5 Z"/></g>
</svg>
