<?xml version="1.0" encoding="UTF-8"?>
<!DOCTYPE svg PUBLIC "-//W3C//DTD SVG 1.1//EN" "http://www.w3.org/Graphics/SVG/1.1/DTD/svg11.dtd">
<svg xmlns="http://www.w3.org/2000/svg" version="1.1" width="64px" height="64px" style="shape-rendering:geometricPrecision; text-rendering:geometricPrecision; image-rendering:optimizeQuality; fill-rule:evenodd; clip-rule:evenodd" xmlns:xlink="http://www.w3.org/1999/xlink">
<g><path style="opacity:0.83" fill="#fefffe" d="M 33.5,-0.5 C 37.8333,-0.5 42.1667,-0.5 46.5,-0.5C 49.1438,1.51599 49.9772,4.18266 49,7.5C 46.7046,10.7974 44.038,13.7974 41,16.5C 39.5,21.6667 41.3333,23.5 46.5,22C 49.1667,19.3333 51.8333,16.6667 54.5,14C 58.1421,12.9302 61.1421,13.7636 63.5,16.5C 63.5,20.8333 63.5,25.1667 63.5,29.5C 57.2299,42.5473 46.8966,47.7139 32.5,45C 26.2714,51.3968 19.9381,57.5635 13.5,63.5C 10.5,63.5 7.5,63.5 4.5,63.5C 2.614,62.0699 0.947334,60.4032 -0.5,58.5C -0.5,55.5 -0.5,52.5 -0.5,49.5C 5.43649,43.0619 11.6032,36.7286 18,30.5C 15.2861,16.1034 20.4527,5.77011 33.5,-0.5 Z M 36.5,5.5 C 38.5273,5.33788 40.5273,5.50454 42.5,6C 37.8521,9.29456 34.8521,13.6279 33.5,19C 35.3303,28.1691 40.6636,31.1691 49.5,28C 52,25.5 54.5,23 57,20.5C 57.5042,28.648 54.0042,34.4813 46.5,38C 40.3902,38.088 34.3902,38.7547 28.5,40C 22.8333,45.6667 17.1667,51.3333 11.5,57C 7,57.8333 5.16667,56 6,51.5C 12.3655,45.469 18.3655,39.1357 24,32.5C 21.2746,19.9645 25.4412,10.9645 36.5,5.5 Z"/></g>
</svg>
